<mxfile host="65bd71144e">
    <diagram id="moeTTBtXrb6m1Vad2x1E" name="PÃ¡gina-1">
        <mxGraphModel dx="917" dy="629" grid="1" gridSize="10" guides="1" tooltips="1" connect="1" arrows="1" fold="1" page="1" pageScale="1" pageWidth="827" pageHeight="1169" math="0" shadow="0">
            <root>
                <mxCell id="0"/>
                <mxCell id="1" parent="0"/>
                <mxCell id="2" value="Actor" style="shape=umlActor;verticalLabelPosition=bottom;verticalAlign=top;html=1;outlineConnect=0;" vertex="1" parent="1">
                    <mxGeometry x="60" y="100" width="180" height="350" as="geometry"/>
                </mxCell>
                <mxCell id="3" value="Tipo Objeto : Persona" style="text;html=1;strokeColor=none;fillColor=none;align=center;verticalAlign=middle;whiteSpace=wrap;rounded=0;" vertex="1" parent="1">
                    <mxGeometry x="290" y="70" width="140" height="30" as="geometry"/>
                </mxCell>
                <mxCell id="4" value="Atributos Objeto :&amp;nbsp;&lt;br&gt;nombre : string&lt;br&gt;edad : int&lt;br&gt;estatura: float&lt;br&gt;peso: float" style="text;html=1;strokeColor=none;fillColor=none;align=center;verticalAlign=middle;whiteSpace=wrap;rounded=0;" vertex="1" parent="1">
                    <mxGeometry x="300" y="200" width="140" height="30" as="geometry"/>
                </mxCell>
                <mxCell id="5" value="acciones Objeto :&amp;nbsp;&lt;br&gt;imc()&lt;br&gt;semanas_vida()&lt;br&gt;volumen()," style="text;html=1;strokeColor=none;fillColor=none;align=center;verticalAlign=middle;whiteSpace=wrap;rounded=0;" vertex="1" parent="1">
                    <mxGeometry x="310" y="340" width="140" height="30" as="geometry"/>
                </mxCell>
            </root>
        </mxGraphModel>
    </diagram>
</mxfile>